<svg width="25" height="24" viewBox="0 0 25 24" fill="none" xmlns="http://www.w3.org/2000/svg">
<path d="M11.3801 23.9998C11.8491 23.9893 12.2991 23.8186 12.6506 23.5177C13.0022 23.2168 13.2325 22.8051 13.3009 22.3556H9.38477C9.4551 22.8174 9.69621 23.2386 10.0632 23.5411C10.4303 23.8435 10.8982 24.0066 11.3801 23.9998Z" fill="#2E3438"/>
<path d="M22.1831 19.3484C21.4652 18.7285 20.8366 18.0178 20.3144 17.2354C19.7443 16.1556 19.4025 14.9763 19.3093 13.7667V10.2043C19.3063 9.77153 19.2664 9.33978 19.1902 8.9134C18.6042 8.79993 18.041 8.59537 17.5224 8.30763C17.7201 8.9241 17.8205 9.56595 17.8202 10.2115V13.7739C17.9115 15.2494 18.3305 16.6884 19.0487 17.9926C19.5627 18.7816 20.1726 19.5079 20.8653 20.1561H1.79812C2.49083 19.5079 3.10073 18.7816 3.61475 17.9926C4.33293 16.6884 4.75196 15.2494 4.84321 13.7739V10.2043C4.8393 9.36966 5.00538 8.54251 5.33195 7.77018C5.65852 6.99784 6.13917 6.29548 6.74638 5.70332C7.35358 5.11117 8.07541 4.64083 8.87054 4.31926C9.66566 3.99769 10.5185 3.83119 11.3801 3.8293C12.6412 3.83028 13.8739 4.1915 14.924 4.86776C14.8083 4.45597 14.7433 4.03235 14.7305 3.60575V3.15143C13.9531 2.78101 13.1179 2.53736 12.2587 2.43028V1.52163C12.2587 1.2663 12.1539 1.02142 11.9675 0.840877C11.7811 0.660329 11.5283 0.558899 11.2647 0.558899C11.0011 0.558899 10.7483 0.660329 10.5619 0.840877C10.3755 1.02142 10.2708 1.2663 10.2708 1.52163V2.46633C8.34673 2.72923 6.58582 3.65749 5.31317 5.07973C4.04052 6.50197 3.34206 8.32215 3.34672 10.2043V13.7667C3.25348 14.9763 2.91176 16.1556 2.34162 17.2354C1.82856 18.016 1.21009 18.7266 0.502649 19.3484C0.423232 19.416 0.359583 19.4992 0.315936 19.5924C0.272289 19.6857 0.249646 19.7869 0.249512 19.8893V20.87C0.249512 21.0613 0.327952 21.2447 0.467577 21.38C0.607202 21.5152 0.796575 21.5912 0.994034 21.5912H21.6918C21.8892 21.5912 22.0786 21.5152 22.2182 21.38C22.3578 21.2447 22.4363 21.0613 22.4363 20.87V19.8893C22.4361 19.7869 22.4135 19.6857 22.3699 19.5924C22.3262 19.4992 22.2626 19.416 22.1831 19.3484Z" fill="#2E3438"/>
<path d="M20.3144 7.21148C22.3703 7.21148 24.037 5.59713 24.037 3.60574C24.037 1.61434 22.3703 0 20.3144 0C18.2585 0 16.5918 1.61434 16.5918 3.60574C16.5918 5.59713 18.2585 7.21148 20.3144 7.21148Z" fill="#2E3438"/>
</svg>
