<svg width="25" height="18" viewBox="0 0 25 18" fill="none" xmlns="http://www.w3.org/2000/svg">
<path opacity="0.9" d="M17.3848 9.47662L24.3602 16.3789L23.3702 17.3579L16.3948 10.4555L17.3848 9.47662Z" fill="#2E3438"/>
<path opacity="0.9" d="M7.9271 9.50635L8.91638 10.4853L1.99001 17.3391L1.00073 16.363L7.9271 9.50635Z" fill="#2E3438"/>
<path d="M12.6301 13.3923C11.5807 13.3923 10.4612 12.9769 9.69164 12.1461L0.946167 3.56152L1.92566 2.59229L10.6711 11.2461C11.7906 12.3538 13.5396 12.3538 14.6591 11.2461L23.4045 2.59229L24.384 3.56152L15.5686 12.2154C14.799 12.9769 13.6796 13.3923 12.6301 13.3923Z" fill="#2E3438"/>
<path d="M22.4249 18H2.83522C1.64585 18 0.736328 17.1 0.736328 15.9231V2.07692C0.736328 0.9 1.64585 0 2.83522 0H22.4249C23.6143 0 24.5238 0.9 24.5238 2.07692V15.9231C24.5238 17.1 23.6143 18 22.4249 18ZM2.83522 1.38462C2.41544 1.38462 2.13559 1.66154 2.13559 2.07692V15.9231C2.13559 16.3385 2.41544 16.6154 2.83522 16.6154H22.4249C22.8447 16.6154 23.1245 16.3385 23.1245 15.9231V2.07692C23.1245 1.66154 22.8447 1.38462 22.4249 1.38462H2.83522Z" fill="#2E3438"/>
</svg>
