<svg width="329" height="244" viewBox="0 0 329 244" fill="none" xmlns="http://www.w3.org/2000/svg">
<path fill-rule="evenodd" clip-rule="evenodd" d="M87.5371 5.15076C88.7192 2.04938 91.6935 0 95.0126 0H117.02C120.323 0 123.287 2.03016 124.48 5.11033L184.785 160.792C187.514 167.837 197.589 167.521 199.871 160.319L234.699 50.4168C236.334 45.259 232.484 40 227.073 40H181C176.582 40 173 36.4183 173 32V8.5C173 4.08172 176.582 0.5 181 0.5H319.711C324.046 0.5 327.592 3.95307 327.708 8.28675L328.281 29.7867C328.401 34.2869 324.786 38 320.284 38H289.878C286.381 38 283.289 40.2719 282.244 43.6096L221.257 238.39C220.212 241.728 217.12 244 213.622 244H178.629C175.253 244 172.24 241.88 171.099 238.702L151.401 183.798C150.261 180.62 147.248 178.5 143.871 178.5H66.9222C63.4038 178.5 60.2984 180.799 59.271 184.164L42.7297 238.336C41.7022 241.701 38.5968 244 35.0785 244H8.11092C2.50698 244 -1.36037 238.387 0.635498 233.151L87.5371 5.15076ZM83.6538 147.5C78.1779 147.5 74.3205 142.122 76.0761 136.935L97.746 72.9106C100.217 65.6105 110.567 65.6823 112.936 73.016L133.621 137.041C135.29 142.207 131.438 147.5 126.009 147.5H83.6538Z" fill="#437DED"/>
</svg>
